<svg width="221" height="66" viewBox="0 0 221 66" fill="none" xmlns="http://www.w3.org/2000/svg">
<g clip-path="url(#clip0_8_17)">
<path d="M15.993 51.57H3.05176e-05C3.05176e-05 59.341 7.16097 65.64 15.992 65.64H79.93L64.47 51.57H15.993Z" fill="#43DDE6"/>
<path d="M79.93 0.000991821H15.992V14.071H95.922C95.922 6.301 88.762 0.000991821 79.93 0.000991821Z" fill="#364F6B"/>
<path d="M79.93 14.07V65.638C88.763 65.638 95.922 59.338 95.922 51.568V14.068L79.93 14.07Z" fill="#F83771"/>
<path d="M3.05176e-05 51.57H15.992V0.000991821C7.15997 0.000991821 3.05176e-05 6.301 3.05176e-05 14.071V51.57Z" fill="#F83771"/>
<path d="M37.971 32.113C37.971 34.613 35.664 36.646 32.819 36.646C29.974 36.646 27.666 34.617 27.666 32.113C27.666 29.609 29.973 27.58 32.819 27.58C35.665 27.58 37.971 29.609 37.971 32.113Z" fill="black"/>
<path d="M55.296 32.113C55.296 34.613 52.989 36.646 50.143 36.646C47.297 36.646 44.991 34.617 44.991 32.113C44.991 29.609 47.298 27.58 50.143 27.58C52.988 27.58 55.296 29.609 55.296 32.113Z" fill="black"/>
<path d="M72.622 32.113C72.622 34.613 70.315 36.646 67.47 36.646C64.625 36.646 62.317 34.617 62.317 32.113C62.317 29.609 64.624 27.58 67.47 27.58C70.316 27.58 72.622 29.609 72.622 32.113Z" fill="black"/>
<path d="M107.358 27.5435H113.76V29H105.568V15.4922H107.358V27.5435ZM125.57 22.6821C125.57 24.0057 125.347 25.1623 124.902 26.1519C124.457 27.1353 123.826 27.8867 123.009 28.4062C122.193 28.9258 121.24 29.1855 120.152 29.1855C119.088 29.1855 118.145 28.9258 117.322 28.4062C116.5 27.8805 115.86 27.1353 115.402 26.1704C114.95 25.1994 114.718 24.0768 114.706 22.8027V21.8286C114.706 20.5298 114.932 19.3825 115.383 18.3867C115.835 17.391 116.472 16.6302 117.294 16.1045C118.123 15.5726 119.069 15.3066 120.133 15.3066C121.216 15.3066 122.168 15.5695 122.991 16.0952C123.819 16.6147 124.457 17.3724 124.902 18.3682C125.347 19.3577 125.57 20.5112 125.57 21.8286V22.6821ZM123.798 21.8101C123.798 20.2082 123.476 18.9805 122.833 18.127C122.19 17.2673 121.29 16.8374 120.133 16.8374C119.008 16.8374 118.12 17.2673 117.471 18.127C116.827 18.9805 116.497 20.168 116.478 21.6895V22.6821C116.478 24.2345 116.803 25.4561 117.452 26.3467C118.108 27.2311 119.008 27.6733 120.152 27.6733C121.302 27.6733 122.193 27.2559 122.824 26.4209C123.455 25.5798 123.779 24.3768 123.798 22.812V21.8101ZM138.215 27.228C137.757 27.8836 137.117 28.3753 136.294 28.7031C135.478 29.0247 134.526 29.1855 133.437 29.1855C132.336 29.1855 131.359 28.9289 130.505 28.4155C129.652 27.896 128.99 27.16 128.52 26.2075C128.056 25.255 127.818 24.151 127.806 22.8955V21.7173C127.806 19.6825 128.279 18.1053 129.225 16.9858C130.178 15.8664 131.514 15.3066 133.233 15.3066C134.643 15.3066 135.778 15.6685 136.638 16.3921C137.497 17.1095 138.023 18.13 138.215 19.4536H136.434C136.1 17.6662 135.036 16.7725 133.242 16.7725C132.049 16.7725 131.142 17.193 130.524 18.0342C129.912 18.8691 129.602 20.0814 129.596 21.6709V22.7749C129.596 24.2902 129.943 25.4963 130.635 26.3931C131.328 27.2837 132.265 27.729 133.446 27.729C134.114 27.729 134.699 27.6548 135.2 27.5063C135.701 27.3579 136.115 27.1074 136.443 26.7549V23.7212H133.316V22.2739H138.215V27.228ZM151.583 22.6821C151.583 24.0057 151.361 25.1623 150.916 26.1519C150.47 27.1353 149.839 27.8867 149.023 28.4062C148.207 28.9258 147.254 29.1855 146.166 29.1855C145.102 29.1855 144.159 28.9258 143.336 28.4062C142.513 27.8805 141.873 27.1353 141.416 26.1704C140.964 25.1994 140.732 24.0768 140.72 22.8027V21.8286C140.72 20.5298 140.945 19.3825 141.397 18.3867C141.848 17.391 142.486 16.6302 143.308 16.1045C144.137 15.5726 145.083 15.3066 146.147 15.3066C147.229 15.3066 148.182 15.5695 149.004 16.0952C149.833 16.6147 150.47 17.3724 150.916 18.3682C151.361 19.3577 151.583 20.5112 151.583 21.8286V22.6821ZM149.812 21.8101C149.812 20.2082 149.49 18.9805 148.847 18.127C148.203 17.2673 147.304 16.8374 146.147 16.8374C145.021 16.8374 144.134 17.2673 143.484 18.127C142.841 18.9805 142.51 20.168 142.492 21.6895V22.6821C142.492 24.2345 142.816 25.4561 143.466 26.3467C144.121 27.2311 145.021 27.6733 146.166 27.6733C147.316 27.6733 148.207 27.2559 148.837 26.4209C149.468 25.5798 149.793 24.3768 149.812 22.812V21.8101ZM156.556 15.4922L160.972 26.5137L165.388 15.4922H167.698V29H165.917V23.7397L166.084 18.062L161.649 29H160.286L155.86 18.0898L156.037 23.7397V29H154.255V15.4922H156.556ZM178.469 25.4746H172.81L171.539 29H169.702L174.86 15.4922H176.419L181.586 29H179.759L178.469 25.4746ZM173.348 24.0088H177.94L175.64 17.6909L173.348 24.0088ZM188.359 23.5356H185.186V29H183.396V15.4922H187.867C189.389 15.4922 190.558 15.8385 191.374 16.5312C192.197 17.224 192.608 18.2321 192.608 19.5557C192.608 20.3968 192.379 21.1297 191.921 21.7544C191.47 22.3791 190.839 22.846 190.029 23.1553L193.202 28.8887V29H191.291L188.359 23.5356ZM185.186 22.0791H187.923C188.807 22.0791 189.509 21.8503 190.029 21.3926C190.555 20.9349 190.817 20.3226 190.817 19.5557C190.817 18.7207 190.567 18.0806 190.066 17.6353C189.571 17.1899 188.854 16.9642 187.914 16.958H185.186V22.0791ZM205.049 24.7139C204.882 26.1426 204.353 27.2466 203.462 28.0259C202.578 28.799 201.4 29.1855 199.928 29.1855C198.332 29.1855 197.052 28.6134 196.087 27.4692C195.128 26.325 194.649 24.7943 194.649 22.877V21.5781C194.649 20.3226 194.872 19.2186 195.317 18.2661C195.768 17.3136 196.405 16.5838 197.228 16.0767C198.051 15.5633 199.003 15.3066 200.085 15.3066C201.52 15.3066 202.671 15.7087 203.537 16.5127C204.403 17.3105 204.907 18.4176 205.049 19.834H203.258C203.104 18.7578 202.767 17.9785 202.247 17.4961C201.734 17.0137 201.013 16.7725 200.085 16.7725C198.947 16.7725 198.054 17.193 197.404 18.0342C196.761 18.8753 196.439 20.0721 196.439 21.6245V22.9326C196.439 24.3984 196.746 25.5643 197.358 26.4302C197.97 27.2961 198.827 27.729 199.928 27.729C200.917 27.729 201.675 27.5063 202.201 27.061C202.733 26.6095 203.085 25.8271 203.258 24.7139H205.049ZM214.948 25.4746H209.289L208.018 29H206.181L211.339 15.4922H212.897L218.065 29H216.237L214.948 25.4746ZM209.827 24.0088H214.419L212.118 17.6909L209.827 24.0088Z" fill="black"/>
<path d="M106.033 39.4688L109.18 46.998L112.338 39.4688H113.299V48H112.578V44.2852L112.637 40.4766L109.461 48H108.904L105.74 40.5059L105.799 44.2617V48H105.078V39.4688H106.033ZM119.299 48C119.229 47.8008 119.184 47.5059 119.164 47.1152C118.918 47.4355 118.604 47.6836 118.221 47.8594C117.842 48.0312 117.439 48.1172 117.014 48.1172C116.404 48.1172 115.91 47.9473 115.531 47.6074C115.156 47.2676 114.969 46.8379 114.969 46.3184C114.969 45.7012 115.225 45.2129 115.736 44.8535C116.252 44.4941 116.969 44.3145 117.887 44.3145H119.158V43.5938C119.158 43.1406 119.018 42.7852 118.736 42.5273C118.459 42.2656 118.053 42.1348 117.518 42.1348C117.029 42.1348 116.625 42.2598 116.305 42.5098C115.984 42.7598 115.824 43.0605 115.824 43.4121L115.121 43.4062C115.121 42.9023 115.355 42.4668 115.824 42.0996C116.293 41.7285 116.869 41.543 117.553 41.543C118.26 41.543 118.816 41.7207 119.223 42.0762C119.633 42.4277 119.844 42.9199 119.855 43.5527V46.5527C119.855 47.166 119.92 47.625 120.049 47.9297V48H119.299ZM117.096 47.4961C117.564 47.4961 117.982 47.3828 118.35 47.1562C118.721 46.9297 118.99 46.627 119.158 46.248V44.8535H117.904C117.205 44.8613 116.658 44.9902 116.264 45.2402C115.869 45.4863 115.672 45.8262 115.672 46.2598C115.672 46.6152 115.803 46.9102 116.064 47.1445C116.33 47.3789 116.674 47.4961 117.096 47.4961ZM124.66 42.2578C124.512 42.2305 124.354 42.2168 124.186 42.2168C123.748 42.2168 123.377 42.3398 123.072 42.5859C122.771 42.8281 122.557 43.1816 122.428 43.6465V48H121.73V41.6602H122.416L122.428 42.668C122.799 41.918 123.395 41.543 124.215 41.543C124.41 41.543 124.564 41.5684 124.678 41.6191L124.66 42.2578ZM126.559 48H125.855V41.6602H126.559V48ZM125.732 39.8262C125.732 39.6934 125.775 39.582 125.861 39.4922C125.947 39.3984 126.064 39.3516 126.213 39.3516C126.361 39.3516 126.479 39.3984 126.564 39.4922C126.654 39.582 126.699 39.6934 126.699 39.8262C126.699 39.959 126.654 40.0703 126.564 40.1602C126.479 40.25 126.361 40.2949 126.213 40.2949C126.064 40.2949 125.947 40.25 125.861 40.1602C125.775 40.0703 125.732 39.959 125.732 39.8262ZM132.471 48C132.4 47.8008 132.355 47.5059 132.336 47.1152C132.09 47.4355 131.775 47.6836 131.393 47.8594C131.014 48.0312 130.611 48.1172 130.186 48.1172C129.576 48.1172 129.082 47.9473 128.703 47.6074C128.328 47.2676 128.141 46.8379 128.141 46.3184C128.141 45.7012 128.396 45.2129 128.908 44.8535C129.424 44.4941 130.141 44.3145 131.059 44.3145H132.33V43.5938C132.33 43.1406 132.189 42.7852 131.908 42.5273C131.631 42.2656 131.225 42.1348 130.689 42.1348C130.201 42.1348 129.797 42.2598 129.477 42.5098C129.156 42.7598 128.996 43.0605 128.996 43.4121L128.293 43.4062C128.293 42.9023 128.527 42.4668 128.996 42.0996C129.465 41.7285 130.041 41.543 130.725 41.543C131.432 41.543 131.988 41.7207 132.395 42.0762C132.805 42.4277 133.016 42.9199 133.027 43.5527V46.5527C133.027 47.166 133.092 47.625 133.221 47.9297V48H132.471ZM130.268 47.4961C130.736 47.4961 131.154 47.3828 131.521 47.1562C131.893 46.9297 132.162 46.627 132.33 46.248V44.8535H131.076C130.377 44.8613 129.83 44.9902 129.436 45.2402C129.041 45.4863 128.844 45.8262 128.844 46.2598C128.844 46.6152 128.975 46.9102 129.236 47.1445C129.502 47.3789 129.846 47.4961 130.268 47.4961ZM135.57 41.6602L135.594 42.7441C135.832 42.3535 136.129 42.0566 136.484 41.8535C136.84 41.6465 137.232 41.543 137.662 41.543C138.342 41.543 138.848 41.7344 139.18 42.1172C139.512 42.5 139.68 43.0742 139.684 43.8398V48H138.986V43.834C138.982 43.2676 138.861 42.8457 138.623 42.5684C138.389 42.291 138.012 42.1523 137.492 42.1523C137.059 42.1523 136.674 42.2891 136.338 42.5625C136.006 42.832 135.76 43.1973 135.6 43.6582V48H134.902V41.6602H135.57ZM145.502 48C145.432 47.8008 145.387 47.5059 145.367 47.1152C145.121 47.4355 144.807 47.6836 144.424 47.8594C144.045 48.0312 143.643 48.1172 143.217 48.1172C142.607 48.1172 142.113 47.9473 141.734 47.6074C141.359 47.2676 141.172 46.8379 141.172 46.3184C141.172 45.7012 141.428 45.2129 141.939 44.8535C142.455 44.4941 143.172 44.3145 144.09 44.3145H145.361V43.5938C145.361 43.1406 145.221 42.7852 144.939 42.5273C144.662 42.2656 144.256 42.1348 143.721 42.1348C143.232 42.1348 142.828 42.2598 142.508 42.5098C142.188 42.7598 142.027 43.0605 142.027 43.4121L141.324 43.4062C141.324 42.9023 141.559 42.4668 142.027 42.0996C142.496 41.7285 143.072 41.543 143.756 41.543C144.463 41.543 145.02 41.7207 145.426 42.0762C145.836 42.4277 146.047 42.9199 146.059 43.5527V46.5527C146.059 47.166 146.123 47.625 146.252 47.9297V48H145.502ZM143.299 47.4961C143.768 47.4961 144.186 47.3828 144.553 47.1562C144.924 46.9297 145.193 46.627 145.361 46.248V44.8535H144.107C143.408 44.8613 142.861 44.9902 142.467 45.2402C142.072 45.4863 141.875 45.8262 141.875 46.2598C141.875 46.6152 142.006 46.9102 142.268 47.1445C142.533 47.3789 142.877 47.4961 143.299 47.4961ZM154.203 44.4492H151.725V48H150.998V39.4688H153.77C154.68 39.4688 155.391 39.6895 155.902 40.1309C156.414 40.5723 156.67 41.1895 156.67 41.9824C156.67 42.5293 156.51 43.0117 156.189 43.4297C155.869 43.8477 155.439 44.1367 154.9 44.2969L157.033 47.9238V48H156.266L154.203 44.4492ZM151.725 43.834H153.934C154.539 43.834 155.025 43.6621 155.393 43.3184C155.76 42.9746 155.943 42.5293 155.943 41.9824C155.943 41.3809 155.752 40.9141 155.369 40.582C154.986 40.25 154.449 40.084 153.758 40.084H151.725V43.834ZM162.547 47.1973C162.125 47.8105 161.451 48.1172 160.525 48.1172C159.85 48.1172 159.336 47.9219 158.984 47.5312C158.633 47.1367 158.453 46.5547 158.445 45.7852V41.6602H159.143V45.6973C159.143 46.9043 159.631 47.5078 160.607 47.5078C161.623 47.5078 162.266 47.0879 162.535 46.248V41.6602H163.238V48H162.559L162.547 47.1973ZM165.852 48H165.148V41.6602H165.852V48ZM165.025 39.8262C165.025 39.6934 165.068 39.582 165.154 39.4922C165.24 39.3984 165.357 39.3516 165.506 39.3516C165.654 39.3516 165.771 39.3984 165.857 39.4922C165.947 39.582 165.992 39.6934 165.992 39.8262C165.992 39.959 165.947 40.0703 165.857 40.1602C165.771 40.25 165.654 40.2949 165.506 40.2949C165.357 40.2949 165.24 40.25 165.154 40.1602C165.068 40.0703 165.025 39.959 165.025 39.8262ZM168.225 47.4082H172.344V48H167.357V47.4844L171.201 42.2637H167.475V41.6602H172.086V42.1816L168.225 47.4082Z" fill="#525252"/>
</g>
<defs>
<clipPath id="clip0_8_17">
<rect width="221" height="65.64" fill="white"/>
</clipPath>
</defs>
</svg>
